HIERARCHY
ROOT Hips
{
	OFFSET 0.000000 0.000000 0.000000
	CHANNELS 6 Xposition Yposition Zposition Zrotation Yrotation Xrotation 
	JOINT Spine1
	{
		OFFSET -0.013727 5.003763 -0.053727
		CHANNELS 3 Zrotation Yrotation Xrotation
		JOINT Spine2
		{
			OFFSET -0.000000 7.125302 -0.029825
			CHANNELS 3 Zrotation Yrotation Xrotation
			JOINT Chest
			{
				OFFSET -0.000001 7.550064 -0.815971
				CHANNELS 3 Zrotation Yrotation Xrotation
				JOINT Neck1
				{
					OFFSET -0.181677 26.311296 -0.553348
					CHANNELS 3 Zrotation Yrotation Xrotation
					JOINT Neck2
					{
						OFFSET -0.000003 7.709399 2.302586
						CHANNELS 3 Zrotation Yrotation Xrotation
						JOINT Head
						{
							OFFSET -0.000005 6.128913 1.953709
							CHANNELS 3 Zrotation Yrotation Xrotation
							JOINT HeadEnd
							{
								OFFSET 0.003598 16.065403 -1.835380
								CHANNELS 3 Zrotation Yrotation Xrotation
								End Site
								{
									OFFSET 0.000000 0.000000 0.000000
								}
							}
							JOINT Jaw
							{
								OFFSET 0.002637 0.475592 3.094941
								CHANNELS 3 Zrotation Yrotation Xrotation
								End Site
								{
									OFFSET 0.000000 0.000000 0.000000
								}
							}
							JOINT LeftEye
							{
								OFFSET 3.206380 5.380207 7.586883
								CHANNELS 3 Zrotation Yrotation Xrotation
								End Site
								{
									OFFSET 0.000000 0.000000 0.000000
								}
							}
							JOINT RightEye
							{
								OFFSET -3.222440 5.361867 7.558232
								CHANNELS 3 Zrotation Yrotation Xrotation
								End Site
								{
									OFFSET 0.000000 0.000000 0.000000
								}
							}
						}
					}
				}
				JOINT LeftShoulder
				{
					OFFSET 1.621652 23.237164 5.113413
					CHANNELS 3 Zrotation Yrotation Xrotation
					JOINT LeftArm
					{
						OFFSET 14.919845 0.000000 -5.502326
						CHANNELS 3 Zrotation Yrotation Xrotation
						JOINT LeftForeArm
						{
							OFFSET 28.739309 0.000002 -0.002588
							CHANNELS 3 Zrotation Yrotation Xrotation
							JOINT LeftHand
							{
								OFFSET 27.093983 -0.000003 0.002609
								CHANNELS 3 Zrotation Yrotation Xrotation
								JOINT LeftHandThumb1
								{
									OFFSET 2.276480 -1.392046 3.191413
									CHANNELS 3 Zrotation Yrotation Xrotation
									JOINT LeftHandThumb2
									{
										OFFSET 4.012841 -1.828126 1.641655
										CHANNELS 3 Zrotation Yrotation Xrotation
										JOINT LeftHandThumb3
										{
											OFFSET 2.798516 0.000000 -0.000003
											CHANNELS 3 Zrotation Yrotation Xrotation
											JOINT LeftHandThumbEnd
											{
												OFFSET 3.180791 -0.000001 0.000002
												CHANNELS 3 Zrotation Yrotation Xrotation
												End Site
												{
													OFFSET 0.000000 0.000000 0.000000
												}
											}
										}
									}
								}
								JOINT LeftHandIndex1
								{
									OFFSET 3.247554 -0.531998 2.296169
									CHANNELS 3 Zrotation Yrotation Xrotation
									JOINT LeftHandIndex2
									{
										OFFSET 6.364580 0.012062 0.178599
										CHANNELS 3 Zrotation Yrotation Xrotation
										JOINT LeftHandIndex3
										{
											OFFSET 3.662366 0.000001 -0.000000
											CHANNELS 3 Zrotation Yrotation Xrotation
											JOINT LeftHandIndex4
											{
												OFFSET 2.329242 0.000003 0.000004
												CHANNELS 3 Zrotation Yrotation Xrotation
												JOINT LeftHandIndexEnd
												{
													OFFSET 2.759619 -0.180539 -0.113024
													CHANNELS 3 Zrotation Yrotation Xrotation
													End Site
													{
														OFFSET 0.000000 0.000000 0.000000
													}
												}
											}
										}
									}
								}
								JOINT LeftHandMiddle1
								{
									OFFSET 3.163498 0.240982 1.000332
									CHANNELS 3 Zrotation Yrotation Xrotation
									JOINT LeftHandMiddle2
									{
										OFFSET 6.190778 -0.259276 -1.002549
										CHANNELS 3 Zrotation Yrotation Xrotation
										JOINT LeftHandMiddle3
										{
											OFFSET 4.356523 -0.000006 0.000000
											CHANNELS 3 Zrotation Yrotation Xrotation
											JOINT LeftHandMiddle4
											{
												OFFSET 2.996875 -0.000006 0.000000
												CHANNELS 3 Zrotation Yrotation Xrotation
												JOINT LeftHandMiddleEnd
												{
													OFFSET 2.304294 -0.294571 -0.031740
													CHANNELS 3 Zrotation Yrotation Xrotation
													End Site
													{
														OFFSET 0.000000 0.000000 0.000000
													}
												}
											}
										}
									}
								}
								JOINT LeftHandRing1
								{
									OFFSET 2.882642 -0.053650 -0.322543
									CHANNELS 3 Zrotation Yrotation Xrotation
									JOINT LeftHandRing2
									{
										OFFSET 5.854542 -0.486203 -1.373841
										CHANNELS 3 Zrotation Yrotation Xrotation
										JOINT LeftHandRing3
										{
											OFFSET 4.350581 0.000001 0.000004
											CHANNELS 3 Zrotation Yrotation Xrotation
											JOINT LeftHandRing4
											{
												OFFSET 2.651324 0.000007 0.000004
												CHANNELS 3 Zrotation Yrotation Xrotation
												JOINT LeftHandRingEnd
												{
													OFFSET 1.936110 0.077685 -0.000070
													CHANNELS 3 Zrotation Yrotation Xrotation
													End Site
													{
														OFFSET 0.000000 0.000000 0.000000
													}
												}
											}
										}
									}
								}
								JOINT LeftHandPinky1
								{
									OFFSET 2.865499 -0.310004 -1.600378
									CHANNELS 3 Zrotation Yrotation Xrotation
									JOINT LeftHandPinky2
									{
										OFFSET 5.087853 -1.331142 -1.771231
										CHANNELS 3 Zrotation Yrotation Xrotation
										JOINT LeftHandPinky3
										{
											OFFSET 3.070975 0.000003 0.000000
											CHANNELS 3 Zrotation Yrotation Xrotation
											JOINT LeftHandPinky4
											{
												OFFSET 1.549667 0.000000 0.000000
												CHANNELS 3 Zrotation Yrotation Xrotation
												JOINT LeftHandPinkyEnd
												{
													OFFSET 1.944895 -0.157802 0.057219
													CHANNELS 3 Zrotation Yrotation Xrotation
													End Site
													{
														OFFSET 0.000000 0.000000 0.000000
													}
												}
											}
										}
									}
								}
							}
						}
					}
				}
				JOINT RightShoulder
				{
					OFFSET -1.380118 23.180307 5.214158
					CHANNELS 3 Zrotation Yrotation Xrotation
					JOINT RightArm
					{
						OFFSET -15.037197 0.000012 -5.545604
						CHANNELS 3 Zrotation Yrotation Xrotation
						JOINT RightForeArm
						{
							OFFSET -28.736639 0.000002 -0.002596
							CHANNELS 3 Zrotation Yrotation Xrotation
							JOINT RightHand
							{
								OFFSET -27.133617 -0.000001 0.002612
								CHANNELS 3 Zrotation Yrotation Xrotation
								JOINT RightHandThumb1
								{
									OFFSET -2.274036 -1.383990 3.163127
									CHANNELS 3 Zrotation Yrotation Xrotation
									JOINT RightHandThumb2
									{
										OFFSET -4.011429 -1.827467 1.640914
										CHANNELS 3 Zrotation Yrotation Xrotation
										JOINT RightHandThumb3
										{
											OFFSET -2.794934 -0.000003 -0.000004
											CHANNELS 3 Zrotation Yrotation Xrotation
											JOINT RightHandThumbEnd
											{
												OFFSET -3.183855 0.000003 -0.000000
												CHANNELS 3 Zrotation Yrotation Xrotation
												End Site
												{
													OFFSET 0.000000 0.000000 0.000000
												}
											}
										}
									}
								}
								JOINT RightHandIndex1
								{
									OFFSET -3.253269 -0.520059 2.282866
									CHANNELS 3 Zrotation Yrotation Xrotation
									JOINT RightHandIndex2
									{
										OFFSET -6.341918 0.012473 0.178265
										CHANNELS 3 Zrotation Yrotation Xrotation
										JOINT RightHandIndex3
										{
											OFFSET -3.654875 -0.000009 -0.000001
											CHANNELS 3 Zrotation Yrotation Xrotation
											JOINT RightHandIndex4
											{
												OFFSET -2.327586 -0.000001 0.000001
												CHANNELS 3 Zrotation Yrotation Xrotation
												JOINT RightHandIndexEnd
												{
													OFFSET -2.761789 -0.180657 -0.113079
													CHANNELS 3 Zrotation Yrotation Xrotation
													End Site
													{
														OFFSET 0.000000 0.000000 0.000000
													}
												}
											}
										}
									}
								}
								JOINT RightHandMiddle1
								{
									OFFSET -3.168106 0.246594 1.001030
									CHANNELS 3 Zrotation Yrotation Xrotation
									JOINT RightHandMiddle2
									{
										OFFSET -6.180830 -0.258836 -1.000896
										CHANNELS 3 Zrotation Yrotation Xrotation
										JOINT RightHandMiddle3
										{
											OFFSET -4.348905 -0.000000 -0.000000
											CHANNELS 3 Zrotation Yrotation Xrotation
											JOINT RightHandMiddle4
											{
												OFFSET -3.000243 -0.000003 -0.000003
												CHANNELS 3 Zrotation Yrotation Xrotation
												JOINT RightHandMiddleEnd
												{
													OFFSET -2.302518 -0.294371 -0.031706
													CHANNELS 3 Zrotation Yrotation Xrotation
													End Site
													{
														OFFSET 0.000000 0.000000 0.000000
													}
												}
											}
										}
									}
								}
								JOINT RightHandRing1
								{
									OFFSET -2.885693 -0.067952 -0.308858
									CHANNELS 3 Zrotation Yrotation Xrotation
									JOINT RightHandRing2
									{
										OFFSET -5.854197 -0.486132 -1.373732
										CHANNELS 3 Zrotation Yrotation Xrotation
										JOINT RightHandRing3
										{
											OFFSET -4.338814 -0.000003 -0.000000
											CHANNELS 3 Zrotation Yrotation Xrotation
											JOINT RightHandRing4
											{
												OFFSET -2.654906 -0.000004 0.000003
												CHANNELS 3 Zrotation Yrotation Xrotation
												JOINT RightHandRingEnd
												{
													OFFSET -1.933570 0.077524 -0.000052
													CHANNELS 3 Zrotation Yrotation Xrotation
													End Site
													{
														OFFSET 0.000000 0.000000 0.000000
													}
												}
											}
										}
									}
								}
								JOINT RightHandPinky1
								{
									OFFSET -2.866429 -0.342798 -1.584145
									CHANNELS 3 Zrotation Yrotation Xrotation
									JOINT RightHandPinky2
									{
										OFFSET -5.091370 -1.332054 -1.772385
										CHANNELS 3 Zrotation Yrotation Xrotation
										JOINT RightHandPinky3
										{
											OFFSET -3.062666 -0.000007 -0.000000
											CHANNELS 3 Zrotation Yrotation Xrotation
											JOINT RightHandPinky4
											{
												OFFSET -1.546526 0.000006 -0.000003
												CHANNELS 3 Zrotation Yrotation Xrotation
												JOINT RightHandPinkyEnd
												{
													OFFSET -1.945122 -0.157721 0.057211
													CHANNELS 3 Zrotation Yrotation Xrotation
													End Site
													{
														OFFSET 0.000000 0.000000 0.000000
													}
												}
											}
										}
									}
								}
							}
						}
					}
				}
			}
		}
	}
	JOINT LeftLeg
	{
		OFFSET 10.043214 -8.434526 2.595655
		CHANNELS 3 Zrotation Yrotation Xrotation
		JOINT LeftShin
		{
			OFFSET -0.000001 -43.221752 -0.802913
			CHANNELS 3 Zrotation Yrotation Xrotation
			JOINT LeftFoot
			{
				OFFSET 0.000002 -42.155094 -3.481523
				CHANNELS 3 Zrotation Yrotation Xrotation
				JOINT LeftToeBase
				{
					OFFSET 0.000000 -5.059474 13.231529
					CHANNELS 3 Zrotation Yrotation Xrotation
					JOINT LeftToeEnd
					{
						OFFSET -0.009607 -1.647615 6.513017
						CHANNELS 3 Zrotation Yrotation Xrotation
						End Site
						{
							OFFSET 0.000000 0.000000 0.000000
						}
					}
				}
			}
		}
	}
	JOINT RightLeg
	{
		OFFSET -10.047277 -8.295259 2.620317
		CHANNELS 3 Zrotation Yrotation Xrotation
		JOINT RightShin
		{
			OFFSET 0.000001 -43.362209 -0.805556
			CHANNELS 3 Zrotation Yrotation Xrotation
			JOINT RightFoot
			{
				OFFSET 0.000002 -42.117393 -3.478398
				CHANNELS 3 Zrotation Yrotation Xrotation
				JOINT RightToeBase
				{
					OFFSET -0.000001 -5.079609 13.284196
					CHANNELS 3 Zrotation Yrotation Xrotation
					JOINT RightToeEnd
					{
						OFFSET 0.009532 -1.634383 6.460591
						CHANNELS 3 Zrotation Yrotation Xrotation
						End Site
						{
							OFFSET 0.000000 0.000000 0.000000
						}
					}
				}
			}
		}
	}
}
MOTION
Frames: 4
Frame Time: 0.033333
0.338784 99.034294 4.851191 -0.068068 0.507445 -1.785403 0.295933 0.143972 -1.624524 -0.494817 0.623255 -5.658318 -0.343653 -1.131944 11.371664 0.938858 2.469672 6.856397 -0.514175 -0.316656 -3.581380 -0.225856 -0.180264 -9.653759 0.000077 -0.000022 0.000006 -0.007008 0.023049 0.026279 0.706761 -3.740441 -10.671271 -0.730644 3.789449 -10.682359 -13.032981 -8.748507 14.531392 -46.385368 -5.526487 30.411385 -0.238036 -42.060501 0.204697 -5.632556 -10.893332 7.823465 -5.882100 9.861279 0.702590 -10.936859 -0.360575 7.156196 0.000000 8.774814 -0.000003 -15.780710 17.951914 5.931434 -1.844031 2.498502 -2.507276 -10.163590 4.678939 4.621105 -20.975994 -0.000003 0.000002 -21.226255 2.451692 -3.593993 0.000002 -0.000006 -0.000001 -1.362682 2.240797 -0.746323 -21.334890 0.584908 3.008320 -13.821198 -0.000001 0.000002 -23.887135 -0.249077 -0.839482 -59.870285 2.646150 -1.152018 -0.294022 1.679687 0.833257 -14.218194 0.093215 1.300579 -34.211998 -0.287563 0.967171 -20.033180 0.964536 1.212841 0.000002 0.000000 0.000001 -3.440385 0.788233 0.501654 -15.928169 -3.167306 2.999704 -6.338817 -0.000000 0.000001 -18.123415 3.648176 -4.905662 -0.000003 -0.000001 -0.000003 17.853542 14.163903 17.407068 41.814198 7.279365 36.652374 0.774107 47.276215 0.540349 0.436073 9.509585 4.648544 2.243537 -5.255033 -3.180155 14.282875 -0.826593 6.952496 -0.000003 -12.690590 -0.000001 16.225634 -17.756247 2.565394 1.665664 -1.955920 -2.878297 4.727794 -4.170582 4.993918 11.020513 0.000003 -0.000001 12.109030 -3.735708 -2.866779 0.000000 -0.000000 0.000000 1.291986 -1.928549 -1.498088 14.800113 0.567469 3.865603 14.242553 -1.341734 -6.660648 19.631941 0.143926 -0.648244 50.540073 -0.786101 -6.259461 0.353030 -1.511148 -0.031941 20.222771 3.684306 2.316629 18.787245 0.000006 0.000000 10.751610 -0.479868 1.397904 -0.000001 0.000001 -0.000000 3.273804 0.305947 -0.580110 21.486790 11.830360 2.266131 8.162917 0.000000 -0.000001 18.399052 -3.798977 -4.940567 0.000003 -0.000001 -0.000001 7.847878 6.998664 -3.232311 -0.072887 -0.519335 13.893603 -8.720307 3.855281 -8.051733 1.626470 -1.951580 -0.992927 0.000000 -0.000000 0.000002 -6.124656 -7.218458 -5.487130 0.068920 0.233163 16.537092 8.405478 -2.556080 -8.561261 -1.394988 0.905441 -0.811984 0.000000 0.000000 -0.000001 
0.279410 99.054756 4.815541 -0.078407 0.338504 -1.796262 0.313342 0.120516 -1.545381 -0.473270 0.651128 -5.662841 -0.350464 -1.113418 11.433031 1.053965 2.415077 6.737493 -0.513844 -0.293647 -3.571846 -0.256902 -0.141086 -9.733378 0.000077 -0.000023 0.000006 -0.001540 0.031586 0.033176 0.706363 -3.731936 -10.651735 -0.719144 3.798419 -10.669462 -13.207185 -8.818873 14.560160 -46.188873 -5.787947 30.276274 -0.031561 -42.581295 0.069008 -5.701066 -11.387432 7.579654 -5.882101 9.861277 0.702590 -10.936858 -0.360576 7.156199 0.000001 8.774812 -0.000001 -15.860333 18.008692 5.961555 -1.844032 2.498502 -2.507276 -10.163589 4.678938 4.621105 -20.975992 -0.000004 0.000003 -21.226250 2.451693 -3.593993 0.000001 -0.000006 -0.000001 -1.362681 2.240796 -0.746323 -21.334892 0.584908 3.008322 -13.821195 -0.000003 0.000003 -23.887129 -0.249078 -0.839479 -60.029716 2.635308 -1.075890 -0.294026 1.679687 0.833255 -14.218190 0.093213 1.300580 -34.211998 -0.287563 0.967172 -20.033180 0.964538 1.212842 0.000001 0.000001 0.000001 -3.440385 0.788233 0.501656 -15.928165 -3.167304 2.999706 -6.338817 0.000000 0.000001 -18.123413 3.648176 -4.905660 -0.000004 -0.000001 -0.000002 17.811867 14.319917 17.491802 41.901955 7.208087 35.992691 0.534026 47.634865 0.465352 0.258328 9.797046 4.053131 2.243541 -5.255031 -3.180154 14.282877 -0.826594 6.952495 -0.000003 -12.690591 -0.000000 16.212822 -17.731066 2.531758 1.665665 -1.955920 -2.878297 4.727795 -4.170583 4.993917 11.020513 0.000003 -0.000002 12.109033 -3.735709 -2.866780 -0.000000 -0.000002 0.000000 1.291984 -1.928549 -1.498088 14.800109 0.567468 3.865602 14.242553 -1.341734 -6.660651 19.631939 0.143926 -0.648245 50.446335 -0.710437 -6.304856 0.353028 -1.511150 -0.031940 20.222771 3.684305 2.316626 18.787245 0.000006 -0.000002 10.751610 -0.479868 1.397902 -0.000001 0.000001 -0.000000 3.273806 0.305946 -0.580111 21.486790 11.830360 2.266128 8.162916 0.000000 -0.000001 18.399054 -3.798978 -4.940569 0.000003 -0.000001 -0.000001 7.879015 6.775335 -3.088912 -0.079276 -0.472175 13.654545 -8.665802 4.166861 -7.965181 1.624879 -1.977141 -1.160002 0.000000 0.000000 0.000002 -6.049356 -7.040625 -5.494243 0.048184 0.201327 16.445690 8.407385 -2.524592 -8.476234 -1.389844 0.883877 -0.934200 -0.000000 -0.000000 -0.000001 
0.201311 99.053879 4.714761 -0.107746 0.131598 -1.755500 0.349510 0.132093 -1.434601 -0.479221 0.607984 -5.679512 -0.366383 -1.086895 11.496142 1.229879 2.333129 6.522874 -0.480551 -0.170734 -3.568568 -0.294978 -0.042837 -9.842112 0.000077 -0.000023 0.000006 0.002676 0.041003 0.040145 0.700208 -3.720635 -10.638220 -0.704605 3.804578 -10.655846 -13.341232 -8.957711 14.551246 -45.782597 -6.167640 29.956135 0.248030 -43.749809 -0.067815 -5.858421 -12.197268 7.085063 -5.882102 9.861278 0.702588 -10.936858 -0.360574 7.156197 -0.000001 8.774813 -0.000002 -15.974775 18.044746 5.994826 -1.844031 2.498503 -2.507276 -10.163590 4.678940 4.621105 -20.975994 -0.000002 0.000002 -21.226255 2.451694 -3.593994 0.000001 -0.000006 -0.000000 -1.362681 2.240797 -0.746320 -21.334894 0.584910 3.008321 -13.821197 -0.000002 0.000003 -23.887131 -0.249076 -0.839482 -60.293560 2.632540 -1.038825 -0.294025 1.679685 0.833255 -14.218194 0.093216 1.300579 -34.212006 -0.287561 0.967168 -20.033180 0.964536 1.212840 0.000001 0.000000 0.000001 -3.440386 0.788232 0.501655 -15.928167 -3.167303 2.999703 -6.338817 -0.000002 0.000002 -18.123413 3.648176 -4.905661 -0.000003 -0.000001 -0.000003 17.714863 14.556423 17.530321 41.955700 7.353755 34.933575 0.226569 48.054668 0.294678 -0.181355 10.019533 3.021959 2.243540 -5.255031 -3.180156 14.282877 -0.826593 6.952495 -0.000001 -12.690588 0.000001 16.208628 -17.788893 2.525228 1.665665 -1.955919 -2.878296 4.727794 -4.170585 4.993918 11.020514 0.000003 -0.000001 12.109034 -3.735710 -2.866781 -0.000000 -0.000001 0.000001 1.291984 -1.928547 -1.498088 14.800114 0.567467 3.865603 14.242554 -1.341734 -6.660649 19.631937 0.143927 -0.648243 50.390553 -0.644953 -6.343883 0.353029 -1.511149 -0.031941 20.222771 3.684304 2.316627 18.787245 0.000005 -0.000001 10.751610 -0.479867 1.397904 0.000000 -0.000000 0.000000 3.273806 0.305946 -0.580110 21.486792 11.830357 2.266129 8.162917 0.000001 -0.000001 18.399057 -3.798977 -4.940569 0.000003 -0.000000 -0.000002 7.934399 6.567946 -3.164483 -0.082841 -0.409214 13.676210 -8.703626 4.482659 -7.970971 1.622768 -1.981584 -1.192865 0.000000 0.000000 0.000002 -5.913603 -6.668554 -5.714704 0.036484 0.177400 16.564125 8.307778 -2.606702 -8.466298 -1.381412 0.889018 -0.941332 -0.000000 -0.000000 -0.000001 
0.132044 99.010101 4.587399 -0.162610 -0.160217 -1.672530 0.387171 0.151169 -1.260256 -0.502355 0.555799 -5.632091 -0.378252 -1.098514 11.473248 1.443511 2.265895 6.158937 -0.415696 -0.010952 -3.586782 -0.329693 0.131631 -10.003238 0.000077 -0.000022 0.000006 0.004817 0.052634 0.046573 0.691222 -3.705613 -10.622010 -0.691587 3.813431 -10.648016 -13.301913 -9.211238 14.502164 -45.145977 -6.552940 29.084337 0.619618 -46.244976 -0.200136 -5.700399 -13.574056 5.859048 -5.882100 9.861279 0.702589 -10.936859 -0.360576 7.156199 0.000001 8.774814 -0.000002 -16.013124 18.011492 5.995436 -1.844031 2.498503 -2.507276 -10.163589 4.678941 4.621105 -20.975992 -0.000004 0.000002 -21.226254 2.451691 -3.593993 0.000001 -0.000006 0.000001 -1.362681 2.240796 -0.746322 -21.334887 0.584908 3.008322 -13.821197 -0.000004 0.000003 -23.887131 -0.249077 -0.839480 -60.452206 2.651863 -1.051942 -0.294026 1.679687 0.833255 -14.218190 0.093215 1.300580 -34.211998 -0.287564 0.967170 -20.033175 0.964536 1.212842 0.000001 0.000000 0.000000 -3.440385 0.788233 0.501655 -15.928165 -3.167306 2.999704 -6.338817 -0.000001 0.000002 -18.123413 3.648178 -4.905660 -0.000005 -0.000001 -0.000002 17.410639 14.805917 17.356171 42.071850 7.770819 33.133831 -0.028533 48.829308 0.214373 -1.009081 10.129423 1.885170 2.243538 -5.255033 -3.180155 14.282877 -0.826593 6.952496 -0.000002 -12.690590 -0.000000 16.154350 -17.887888 2.511294 1.665664 -1.955919 -2.878296 4.727791 -4.170583 4.993919 11.020511 0.000002 -0.000001 12.109029 -3.735710 -2.866780 0.000000 -0.000001 0.000000 1.291985 -1.928548 -1.498088 14.800111 0.567468 3.865604 14.242553 -1.341735 -6.660648 19.631939 0.143927 -0.648244 50.299259 -0.611335 -6.403198 0.353028 -1.511148 -0.031941 20.222771 3.684307 2.316627 18.787245 0.000005 -0.000001 10.751610 -0.479868 1.397903 0.000000 0.000002 0.000000 3.273804 0.305947 -0.580110 21.486792 11.830363 2.266131 8.162917 -0.000001 -0.000000 18.399054 -3.798979 -4.940568 0.000002 -0.000000 -0.000001 8.002857 6.388163 -3.498706 -0.083719 -0.379135 14.138726 -8.726035 4.845596 -8.199039 1.618524 -1.993883 -1.143721 -0.000000 0.000000 0.000002 -5.744868 -6.165087 -6.173524 0.040156 0.169097 17.002453 8.234469 -2.757531 -8.597489 -1.378627 0.909475 -0.916013 -0.000000 -0.000000 -0.000001 
